<mxfile host="Electron" modified="2024-11-25T22:33:10.552Z" agent="Mozilla/5.0 (X11; Linux x86_64) AppleWebKit/537.36 (KHTML, like Gecko) draw.io/24.1.0 Chrome/120.0.6099.109 Electron/28.1.0 Safari/537.36" etag="vn4LTT6mRCNCs4Ord-cS" version="24.1.0" type="device">
  <diagram name="Page-1" id="acRGpJYWAis8sttneH2f">
    <mxGraphModel dx="523" dy="830" grid="0" gridSize="10" guides="1" tooltips="1" connect="1" arrows="1" fold="1" page="1" pageScale="1" pageWidth="850" pageHeight="1100" math="0" shadow="0">
      <root>
        <mxCell id="0" />
        <mxCell id="1" parent="0" />
        <mxCell id="J4QYzZViZF2wfmWVbsKl-28" style="edgeStyle=orthogonalEdgeStyle;rounded=0;orthogonalLoop=1;jettySize=auto;html=1;exitX=0;exitY=0.25;exitDx=0;exitDy=0;entryX=1;entryY=0.5;entryDx=0;entryDy=0;" edge="1" parent="1" source="J4QYzZViZF2wfmWVbsKl-1" target="J4QYzZViZF2wfmWVbsKl-7">
          <mxGeometry relative="1" as="geometry" />
        </mxCell>
        <mxCell id="J4QYzZViZF2wfmWVbsKl-1" value="Raspberry Pi" style="rounded=0;whiteSpace=wrap;html=1;" vertex="1" parent="1">
          <mxGeometry x="320" y="240" width="80" height="80" as="geometry" />
        </mxCell>
        <mxCell id="J4QYzZViZF2wfmWVbsKl-2" value="Btn" style="rounded=0;whiteSpace=wrap;html=1;" vertex="1" parent="1">
          <mxGeometry x="220" y="240" width="40" height="40" as="geometry" />
        </mxCell>
        <mxCell id="J4QYzZViZF2wfmWVbsKl-3" value="Btn" style="rounded=0;whiteSpace=wrap;html=1;" vertex="1" parent="1">
          <mxGeometry x="230" y="250" width="40" height="40" as="geometry" />
        </mxCell>
        <mxCell id="J4QYzZViZF2wfmWVbsKl-27" style="edgeStyle=orthogonalEdgeStyle;rounded=0;orthogonalLoop=1;jettySize=auto;html=1;exitX=1;exitY=0.5;exitDx=0;exitDy=0;entryX=0;entryY=0.5;entryDx=0;entryDy=0;" edge="1" parent="1" source="J4QYzZViZF2wfmWVbsKl-4" target="J4QYzZViZF2wfmWVbsKl-1">
          <mxGeometry relative="1" as="geometry" />
        </mxCell>
        <mxCell id="J4QYzZViZF2wfmWVbsKl-4" value="Btn" style="rounded=0;whiteSpace=wrap;html=1;" vertex="1" parent="1">
          <mxGeometry x="240" y="260" width="40" height="40" as="geometry" />
        </mxCell>
        <mxCell id="J4QYzZViZF2wfmWVbsKl-5" value="LED" style="rounded=0;whiteSpace=wrap;html=1;" vertex="1" parent="1">
          <mxGeometry x="220" y="160" width="40" height="40" as="geometry" />
        </mxCell>
        <mxCell id="J4QYzZViZF2wfmWVbsKl-6" value="LED" style="rounded=0;whiteSpace=wrap;html=1;" vertex="1" parent="1">
          <mxGeometry x="230" y="170" width="40" height="40" as="geometry" />
        </mxCell>
        <mxCell id="J4QYzZViZF2wfmWVbsKl-7" value="LED" style="rounded=0;whiteSpace=wrap;html=1;" vertex="1" parent="1">
          <mxGeometry x="240" y="180" width="40" height="40" as="geometry" />
        </mxCell>
        <mxCell id="J4QYzZViZF2wfmWVbsKl-8" value="" style="endArrow=none;dashed=1;html=1;dashPattern=1 3;strokeWidth=2;rounded=0;" edge="1" parent="1">
          <mxGeometry width="50" height="50" relative="1" as="geometry">
            <mxPoint x="200" y="520" as="sourcePoint" />
            <mxPoint x="200" y="80" as="targetPoint" />
          </mxGeometry>
        </mxCell>
        <mxCell id="J4QYzZViZF2wfmWVbsKl-9" value="" style="endArrow=none;dashed=1;html=1;dashPattern=1 3;strokeWidth=2;rounded=0;" edge="1" parent="1">
          <mxGeometry width="50" height="50" relative="1" as="geometry">
            <mxPoint x="440" y="520" as="sourcePoint" />
            <mxPoint x="440" y="80" as="targetPoint" />
          </mxGeometry>
        </mxCell>
        <mxCell id="J4QYzZViZF2wfmWVbsKl-35" style="edgeStyle=orthogonalEdgeStyle;rounded=0;orthogonalLoop=1;jettySize=auto;html=1;exitX=0.5;exitY=0;exitDx=0;exitDy=0;entryX=0.5;entryY=1;entryDx=0;entryDy=0;" edge="1" parent="1" source="J4QYzZViZF2wfmWVbsKl-10" target="J4QYzZViZF2wfmWVbsKl-13">
          <mxGeometry relative="1" as="geometry" />
        </mxCell>
        <mxCell id="J4QYzZViZF2wfmWVbsKl-10" value="Ultrasound" style="rounded=0;whiteSpace=wrap;html=1;" vertex="1" parent="1">
          <mxGeometry x="280" y="440" width="80" height="40" as="geometry" />
        </mxCell>
        <mxCell id="J4QYzZViZF2wfmWVbsKl-11" value="Ultrasound" style="rounded=0;whiteSpace=wrap;html=1;" vertex="1" parent="1">
          <mxGeometry x="290" y="450" width="80" height="40" as="geometry" />
        </mxCell>
        <mxCell id="J4QYzZViZF2wfmWVbsKl-12" value="Ultrasound" style="rounded=0;whiteSpace=wrap;html=1;" vertex="1" parent="1">
          <mxGeometry x="300" y="460" width="80" height="40" as="geometry" />
        </mxCell>
        <mxCell id="J4QYzZViZF2wfmWVbsKl-19" style="edgeStyle=orthogonalEdgeStyle;rounded=0;orthogonalLoop=1;jettySize=auto;html=1;exitX=0;exitY=0.25;exitDx=0;exitDy=0;entryX=1;entryY=0.5;entryDx=0;entryDy=0;" edge="1" parent="1" source="J4QYzZViZF2wfmWVbsKl-13" target="J4QYzZViZF2wfmWVbsKl-14">
          <mxGeometry relative="1" as="geometry">
            <Array as="points">
              <mxPoint x="190" y="370" />
              <mxPoint x="190" y="220" />
            </Array>
          </mxGeometry>
        </mxCell>
        <mxCell id="J4QYzZViZF2wfmWVbsKl-36" style="edgeStyle=orthogonalEdgeStyle;rounded=0;orthogonalLoop=1;jettySize=auto;html=1;exitX=0.5;exitY=0;exitDx=0;exitDy=0;entryX=0.5;entryY=1;entryDx=0;entryDy=0;" edge="1" parent="1" source="J4QYzZViZF2wfmWVbsKl-13" target="J4QYzZViZF2wfmWVbsKl-1">
          <mxGeometry relative="1" as="geometry" />
        </mxCell>
        <mxCell id="J4QYzZViZF2wfmWVbsKl-13" value="Microproc." style="rounded=0;whiteSpace=wrap;html=1;" vertex="1" parent="1">
          <mxGeometry x="280" y="360" width="80" height="40" as="geometry" />
        </mxCell>
        <mxCell id="J4QYzZViZF2wfmWVbsKl-21" style="edgeStyle=orthogonalEdgeStyle;rounded=0;orthogonalLoop=1;jettySize=auto;html=1;exitX=0.5;exitY=1;exitDx=0;exitDy=0;entryX=0.621;entryY=0.004;entryDx=0;entryDy=0;entryPerimeter=0;" edge="1" parent="1" source="J4QYzZViZF2wfmWVbsKl-14" target="J4QYzZViZF2wfmWVbsKl-17">
          <mxGeometry relative="1" as="geometry" />
        </mxCell>
        <mxCell id="J4QYzZViZF2wfmWVbsKl-14" value="H Bridge" style="rounded=0;whiteSpace=wrap;html=1;" vertex="1" parent="1">
          <mxGeometry x="80" y="200" width="80" height="40" as="geometry" />
        </mxCell>
        <mxCell id="J4QYzZViZF2wfmWVbsKl-15" value="Encoder" style="rounded=0;whiteSpace=wrap;html=1;" vertex="1" parent="1">
          <mxGeometry x="80" y="350" width="80" height="40" as="geometry" />
        </mxCell>
        <mxCell id="J4QYzZViZF2wfmWVbsKl-58" style="edgeStyle=orthogonalEdgeStyle;rounded=0;orthogonalLoop=1;jettySize=auto;html=1;exitX=1;exitY=0.5;exitDx=0;exitDy=0;entryX=0;entryY=0.5;entryDx=0;entryDy=0;" edge="1" parent="1" source="J4QYzZViZF2wfmWVbsKl-16" target="J4QYzZViZF2wfmWVbsKl-13">
          <mxGeometry relative="1" as="geometry">
            <Array as="points">
              <mxPoint x="200" y="380" />
              <mxPoint x="200" y="380" />
            </Array>
          </mxGeometry>
        </mxCell>
        <mxCell id="J4QYzZViZF2wfmWVbsKl-16" value="Encoder" style="rounded=0;whiteSpace=wrap;html=1;" vertex="1" parent="1">
          <mxGeometry x="90" y="360" width="80" height="40" as="geometry" />
        </mxCell>
        <mxCell id="J4QYzZViZF2wfmWVbsKl-17" value="Motor" style="rounded=0;whiteSpace=wrap;html=1;" vertex="1" parent="1">
          <mxGeometry x="95" y="260" width="40" height="40" as="geometry" />
        </mxCell>
        <mxCell id="J4QYzZViZF2wfmWVbsKl-18" value="Motor" style="rounded=0;whiteSpace=wrap;html=1;" vertex="1" parent="1">
          <mxGeometry x="105" y="270" width="40" height="40" as="geometry" />
        </mxCell>
        <mxCell id="J4QYzZViZF2wfmWVbsKl-22" style="edgeStyle=orthogonalEdgeStyle;rounded=0;orthogonalLoop=1;jettySize=auto;html=1;exitX=0.5;exitY=1;exitDx=0;exitDy=0;entryX=0.567;entryY=-0.003;entryDx=0;entryDy=0;entryPerimeter=0;" edge="1" parent="1" source="J4QYzZViZF2wfmWVbsKl-18" target="J4QYzZViZF2wfmWVbsKl-15">
          <mxGeometry relative="1" as="geometry" />
        </mxCell>
        <mxCell id="J4QYzZViZF2wfmWVbsKl-24" style="edgeStyle=orthogonalEdgeStyle;rounded=0;orthogonalLoop=1;jettySize=auto;html=1;exitX=0.5;exitY=1;exitDx=0;exitDy=0;entryX=0.5;entryY=0;entryDx=0;entryDy=0;" edge="1" parent="1" source="J4QYzZViZF2wfmWVbsKl-23" target="J4QYzZViZF2wfmWVbsKl-1">
          <mxGeometry relative="1" as="geometry" />
        </mxCell>
        <mxCell id="J4QYzZViZF2wfmWVbsKl-29" value="USB" style="edgeLabel;html=1;align=center;verticalAlign=middle;resizable=0;points=[];" vertex="1" connectable="0" parent="J4QYzZViZF2wfmWVbsKl-24">
          <mxGeometry x="-0.092" y="-2" relative="1" as="geometry">
            <mxPoint x="2" y="-1" as="offset" />
          </mxGeometry>
        </mxCell>
        <mxCell id="J4QYzZViZF2wfmWVbsKl-23" value="LIDAR" style="rounded=0;whiteSpace=wrap;html=1;" vertex="1" parent="1">
          <mxGeometry x="320" y="140" width="80" height="40" as="geometry" />
        </mxCell>
        <mxCell id="J4QYzZViZF2wfmWVbsKl-31" style="edgeStyle=orthogonalEdgeStyle;rounded=0;orthogonalLoop=1;jettySize=auto;html=1;exitX=0;exitY=0.5;exitDx=0;exitDy=0;entryX=0.75;entryY=0;entryDx=0;entryDy=0;" edge="1" parent="1" source="J4QYzZViZF2wfmWVbsKl-30" target="J4QYzZViZF2wfmWVbsKl-1">
          <mxGeometry relative="1" as="geometry">
            <Array as="points">
              <mxPoint x="420" y="140" />
              <mxPoint x="420" y="200" />
              <mxPoint x="380" y="200" />
            </Array>
          </mxGeometry>
        </mxCell>
        <mxCell id="J4QYzZViZF2wfmWVbsKl-32" value="UART" style="edgeLabel;html=1;align=center;verticalAlign=middle;resizable=0;points=[];" vertex="1" connectable="0" parent="J4QYzZViZF2wfmWVbsKl-31">
          <mxGeometry x="0.1341" y="2" relative="1" as="geometry">
            <mxPoint x="-22" y="7" as="offset" />
          </mxGeometry>
        </mxCell>
        <mxCell id="J4QYzZViZF2wfmWVbsKl-30" value="GPS" style="rounded=0;whiteSpace=wrap;html=1;" vertex="1" parent="1">
          <mxGeometry x="480" y="120" width="80" height="40" as="geometry" />
        </mxCell>
        <mxCell id="J4QYzZViZF2wfmWVbsKl-50" style="edgeStyle=orthogonalEdgeStyle;rounded=0;orthogonalLoop=1;jettySize=auto;html=1;exitX=0;exitY=0.5;exitDx=0;exitDy=0;entryX=1;entryY=0.25;entryDx=0;entryDy=0;" edge="1" parent="1" source="J4QYzZViZF2wfmWVbsKl-33" target="J4QYzZViZF2wfmWVbsKl-1">
          <mxGeometry relative="1" as="geometry">
            <Array as="points">
              <mxPoint x="450" y="190" />
              <mxPoint x="450" y="260" />
            </Array>
          </mxGeometry>
        </mxCell>
        <mxCell id="J4QYzZViZF2wfmWVbsKl-33" value="Camera" style="rounded=0;whiteSpace=wrap;html=1;" vertex="1" parent="1">
          <mxGeometry x="480" y="170" width="80" height="40" as="geometry" />
        </mxCell>
        <mxCell id="J4QYzZViZF2wfmWVbsKl-44" style="edgeStyle=orthogonalEdgeStyle;rounded=0;orthogonalLoop=1;jettySize=auto;html=1;exitX=0;exitY=0.5;exitDx=0;exitDy=0;" edge="1" parent="1" source="J4QYzZViZF2wfmWVbsKl-37">
          <mxGeometry relative="1" as="geometry">
            <mxPoint x="360" y="320" as="targetPoint" />
            <Array as="points">
              <mxPoint x="460" y="300" />
              <mxPoint x="460" y="340" />
              <mxPoint x="360" y="340" />
            </Array>
          </mxGeometry>
        </mxCell>
        <mxCell id="J4QYzZViZF2wfmWVbsKl-37" value="Barometer" style="rounded=0;whiteSpace=wrap;html=1;" vertex="1" parent="1">
          <mxGeometry x="480" y="280" width="80" height="40" as="geometry" />
        </mxCell>
        <mxCell id="J4QYzZViZF2wfmWVbsKl-43" style="edgeStyle=orthogonalEdgeStyle;rounded=0;orthogonalLoop=1;jettySize=auto;html=1;exitX=0;exitY=0.5;exitDx=0;exitDy=0;entryX=0.5;entryY=1;entryDx=0;entryDy=0;" edge="1" parent="1" source="J4QYzZViZF2wfmWVbsKl-38" target="J4QYzZViZF2wfmWVbsKl-1">
          <mxGeometry relative="1" as="geometry">
            <Array as="points">
              <mxPoint x="480" y="340" />
              <mxPoint x="360" y="340" />
            </Array>
          </mxGeometry>
        </mxCell>
        <mxCell id="J4QYzZViZF2wfmWVbsKl-38" value="IMU" style="rounded=0;whiteSpace=wrap;html=1;" vertex="1" parent="1">
          <mxGeometry x="480" y="330" width="80" height="40" as="geometry" />
        </mxCell>
        <mxCell id="J4QYzZViZF2wfmWVbsKl-45" style="edgeStyle=orthogonalEdgeStyle;rounded=0;orthogonalLoop=1;jettySize=auto;html=1;exitX=0;exitY=0.5;exitDx=0;exitDy=0;" edge="1" parent="1" source="J4QYzZViZF2wfmWVbsKl-39">
          <mxGeometry relative="1" as="geometry">
            <mxPoint x="360" y="320" as="targetPoint" />
            <Array as="points">
              <mxPoint x="460" y="400" />
              <mxPoint x="460" y="340" />
              <mxPoint x="360" y="340" />
            </Array>
          </mxGeometry>
        </mxCell>
        <mxCell id="J4QYzZViZF2wfmWVbsKl-39" value="ADC" style="rounded=0;whiteSpace=wrap;html=1;" vertex="1" parent="1">
          <mxGeometry x="480" y="380" width="80" height="40" as="geometry" />
        </mxCell>
        <mxCell id="J4QYzZViZF2wfmWVbsKl-46" style="edgeStyle=orthogonalEdgeStyle;rounded=0;orthogonalLoop=1;jettySize=auto;html=1;exitX=0;exitY=0.5;exitDx=0;exitDy=0;entryX=0.5;entryY=1;entryDx=0;entryDy=0;" edge="1" parent="1" source="J4QYzZViZF2wfmWVbsKl-40" target="J4QYzZViZF2wfmWVbsKl-1">
          <mxGeometry relative="1" as="geometry">
            <Array as="points">
              <mxPoint x="460" y="450" />
              <mxPoint x="460" y="340" />
              <mxPoint x="360" y="340" />
            </Array>
          </mxGeometry>
        </mxCell>
        <mxCell id="J4QYzZViZF2wfmWVbsKl-40" value="Magnetometer" style="rounded=0;whiteSpace=wrap;html=1;" vertex="1" parent="1">
          <mxGeometry x="480" y="430" width="80" height="40" as="geometry" />
        </mxCell>
        <mxCell id="J4QYzZViZF2wfmWVbsKl-47" style="edgeStyle=orthogonalEdgeStyle;rounded=0;orthogonalLoop=1;jettySize=auto;html=1;exitX=0;exitY=0.5;exitDx=0;exitDy=0;entryX=0.5;entryY=1;entryDx=0;entryDy=0;" edge="1" parent="1" source="J4QYzZViZF2wfmWVbsKl-41" target="J4QYzZViZF2wfmWVbsKl-1">
          <mxGeometry relative="1" as="geometry">
            <Array as="points">
              <mxPoint x="460" y="500" />
              <mxPoint x="460" y="340" />
              <mxPoint x="360" y="340" />
            </Array>
          </mxGeometry>
        </mxCell>
        <mxCell id="J4QYzZViZF2wfmWVbsKl-48" value="I2C" style="edgeLabel;html=1;align=center;verticalAlign=middle;resizable=0;points=[];" vertex="1" connectable="0" parent="J4QYzZViZF2wfmWVbsKl-47">
          <mxGeometry x="0.6018" y="1" relative="1" as="geometry">
            <mxPoint as="offset" />
          </mxGeometry>
        </mxCell>
        <mxCell id="J4QYzZViZF2wfmWVbsKl-41" value="RTC" style="rounded=0;whiteSpace=wrap;html=1;" vertex="1" parent="1">
          <mxGeometry x="480" y="480" width="80" height="40" as="geometry" />
        </mxCell>
        <mxCell id="J4QYzZViZF2wfmWVbsKl-57" style="edgeStyle=orthogonalEdgeStyle;rounded=0;orthogonalLoop=1;jettySize=auto;html=1;exitX=0.5;exitY=1;exitDx=0;exitDy=0;" edge="1" parent="1" source="J4QYzZViZF2wfmWVbsKl-42" target="J4QYzZViZF2wfmWVbsKl-14">
          <mxGeometry relative="1" as="geometry" />
        </mxCell>
        <mxCell id="J4QYzZViZF2wfmWVbsKl-42" value="Battery" style="rounded=0;whiteSpace=wrap;html=1;" vertex="1" parent="1">
          <mxGeometry x="80" y="120" width="80" height="40" as="geometry" />
        </mxCell>
        <mxCell id="J4QYzZViZF2wfmWVbsKl-51" style="edgeStyle=orthogonalEdgeStyle;rounded=0;orthogonalLoop=1;jettySize=auto;html=1;exitX=0;exitY=0.5;exitDx=0;exitDy=0;entryX=1;entryY=0.5;entryDx=0;entryDy=0;" edge="1" parent="1" source="J4QYzZViZF2wfmWVbsKl-49" target="J4QYzZViZF2wfmWVbsKl-1">
          <mxGeometry relative="1" as="geometry">
            <Array as="points">
              <mxPoint x="460" y="250" />
              <mxPoint x="460" y="280" />
            </Array>
          </mxGeometry>
        </mxCell>
        <mxCell id="J4QYzZViZF2wfmWVbsKl-53" value="SPI" style="edgeLabel;html=1;align=center;verticalAlign=middle;resizable=0;points=[];" vertex="1" connectable="0" parent="J4QYzZViZF2wfmWVbsKl-51">
          <mxGeometry x="0.5906" y="2" relative="1" as="geometry">
            <mxPoint x="3" y="-2" as="offset" />
          </mxGeometry>
        </mxCell>
        <mxCell id="J4QYzZViZF2wfmWVbsKl-49" value="UWB" style="rounded=0;whiteSpace=wrap;html=1;" vertex="1" parent="1">
          <mxGeometry x="480" y="230" width="80" height="40" as="geometry" />
        </mxCell>
        <mxCell id="J4QYzZViZF2wfmWVbsKl-54" value="Bottom" style="text;html=1;align=center;verticalAlign=middle;whiteSpace=wrap;rounded=0;" vertex="1" parent="1">
          <mxGeometry x="90" y="80" width="60" height="30" as="geometry" />
        </mxCell>
        <mxCell id="J4QYzZViZF2wfmWVbsKl-55" value="Mid" style="text;html=1;align=center;verticalAlign=middle;whiteSpace=wrap;rounded=0;" vertex="1" parent="1">
          <mxGeometry x="290" y="80" width="60" height="30" as="geometry" />
        </mxCell>
        <mxCell id="J4QYzZViZF2wfmWVbsKl-56" value="Top" style="text;html=1;align=center;verticalAlign=middle;whiteSpace=wrap;rounded=0;" vertex="1" parent="1">
          <mxGeometry x="490" y="80" width="60" height="30" as="geometry" />
        </mxCell>
        <mxCell id="J4QYzZViZF2wfmWVbsKl-59" value="Line Sensor" style="rounded=0;whiteSpace=wrap;html=1;" vertex="1" parent="1">
          <mxGeometry x="80" y="420" width="80" height="40" as="geometry" />
        </mxCell>
        <mxCell id="J4QYzZViZF2wfmWVbsKl-61" style="edgeStyle=orthogonalEdgeStyle;rounded=0;orthogonalLoop=1;jettySize=auto;html=1;exitX=1;exitY=0.5;exitDx=0;exitDy=0;entryX=0;entryY=0.75;entryDx=0;entryDy=0;" edge="1" parent="1" source="J4QYzZViZF2wfmWVbsKl-60" target="J4QYzZViZF2wfmWVbsKl-13">
          <mxGeometry relative="1" as="geometry" />
        </mxCell>
        <mxCell id="J4QYzZViZF2wfmWVbsKl-60" value="Line Sensor" style="rounded=0;whiteSpace=wrap;html=1;" vertex="1" parent="1">
          <mxGeometry x="90" y="430" width="80" height="40" as="geometry" />
        </mxCell>
      </root>
    </mxGraphModel>
  </diagram>
</mxfile>
